<?xml version="1.0" standalone="no"?>
<!DOCTYPE svg PUBLIC "-//W3C//DTD SVG 20010904//EN"
 "http://www.w3.org/TR/2001/REC-SVG-20010904/DTD/svg10.dtd">
<svg version="1.0" xmlns="http://www.w3.org/2000/svg"
 width="1170.000000pt" height="344.000000pt" viewBox="0 0 1170.000000 344.000000"
 preserveAspectRatio="xMidYMid meet">

<g transform="translate(0.000000,344.000000) scale(0.100000,-0.100000)"
fill="#000000" stroke="none">
<path d="M0 1720 l0 -1720 5850 0 5850 0 0 1720 0 1720 -5850 0 -5850 0 0
-1720z m3675 1533 c40 -21 89 -68 116 -111 12 -21 23 -23 94 -25 123 -4 200
-52 246 -152 23 -51 33 -63 56 -68 52 -10 126 -69 155 -122 70 -127 7 -279
-141 -341 -57 -24 -68 -19 -73 31 -7 56 -46 117 -98 151 -51 34 -45 42 12 17
48 -22 105 -81 120 -125 12 -33 22 -35 65 -8 42 25 89 91 97 135 17 90 -54
189 -154 215 -54 15 -55 16 -70 65 -32 108 -127 164 -259 151 l-69 -6 -13 32
c-36 86 -115 138 -213 140 -63 1 -87 -8 -172 -62 -19 -11 -28 -10 -75 13 -129
65 -305 3 -335 -116 -9 -39 -25 -42 -75 -17 -59 31 -141 36 -215 15 -124 -36
-213 -178 -174 -280 9 -24 6 -30 -26 -58 -56 -50 -77 -91 -77 -154 0 -69 37
-126 108 -166 71 -39 95 -33 111 24 10 33 28 59 63 93 60 55 100 65 47 10 -51
-52 -70 -99 -70 -169 0 -75 26 -127 90 -184 31 -27 41 -41 30 -41 -48 0 -145
90 -162 151 -8 28 -17 34 -76 54 -125 40 -188 117 -188 229 0 49 6 71 30 114
17 28 39 58 50 64 17 11 20 24 20 83 0 153 98 259 265 288 56 10 76 9 136 -7
39 -10 71 -16 73 -14 65 104 133 148 236 156 56 4 82 0 131 -18 l62 -22 39 22
c61 34 87 40 168 36 52 -2 87 -9 115 -23z m-364 -193 l24 -19 -47 -1 c-66 0
-103 -32 -103 -90 0 -37 -2 -40 -20 -35 -73 24 -140 16 -185 -22 -45 -37 -62
-78 -62 -142 1 -49 -1 -54 -13 -38 -20 28 -27 82 -15 126 24 89 96 136 197
128 57 -4 63 -3 63 15 0 26 26 75 47 87 30 17 89 13 114 -9z m576 -130 c39
-24 60 -81 44 -122 -6 -16 -15 -28 -21 -28 -6 0 -9 4 -6 8 11 18 -16 82 -42
103 -22 17 -37 20 -74 16 -54 -5 -61 5 -20 27 38 21 81 20 119 -4z m-339 -317
l2 -193 -25 0 -25 0 0 170 0 170 -95 0 -95 0 0 -170 0 -170 -25 0 -25 0 0 188
c0 104 3 192 7 196 4 3 68 5 142 4 l136 -3 3 -192z m-153 -657 c88 -38 118
-93 119 -217 0 -119 -43 -180 -148 -211 -43 -13 -268 -15 -305 -3 -20 6 -21
13 -21 225 l0 219 43 4 c95 10 272 1 312 -17z m629 13 c56 -16 93 -56 101
-112 10 -66 -2 -115 -36 -149 -16 -16 -29 -31 -29 -34 0 -2 16 -28 35 -59 56
-87 56 -85 -16 -85 l-64 0 -30 51 c-49 83 -58 89 -125 89 l-60 0 0 -70 0 -70
-60 0 -60 0 2 218 3 217 50 6 c88 10 249 9 289 -2z m2173 -12 c53 -28 68 -60
68 -148 0 -134 -45 -169 -217 -169 l-108 0 0 -55 0 -55 -60 0 -60 0 2 218 3
217 60 6 c110 12 277 4 312 -14z m-1437 -147 c38 -85 73 -156 78 -158 5 -1 40
66 77 150 37 84 73 156 79 160 19 13 93 9 98 -4 3 -7 -39 -105 -92 -218 l-96
-205 -64 0 -64 0 -92 195 c-51 107 -93 205 -93 218 -1 21 2 23 50 20 l51 -3
68 -155z m812 -54 c54 -115 98 -213 98 -218 0 -4 -25 -8 -56 -8 -55 0 -56 0
-72 40 l-17 40 -113 0 -112 0 -16 -40 c-16 -40 -17 -40 -70 -40 -37 0 -54 4
-54 13 0 14 177 395 193 415 7 8 29 12 65 10 l55 -3 99 -209z m1273 159 l0
-50 -147 -3 -148 -3 0 -29 0 -29 118 -3 117 -3 0 -50 0 -50 -117 -3 -118 -3 0
-29 0 -30 150 0 150 0 0 -50 0 -50 -210 0 -210 0 0 213 c0 118 3 217 7 221 4
3 97 5 207 4 l201 -3 0 -50z m-4161 -13 c-3 -9 -18 -25 -35 -34 -38 -22 -49
-53 -49 -144 l0 -74 40 0 c36 0 40 -3 40 -25 0 -24 -2 -24 -87 -27 l-88 -3 -3
-78 c-2 -50 1 -84 9 -93 9 -11 41 -14 134 -14 l122 0 33 -47 c18 -27 49 -63
69 -80 l36 -33 -222 0 c-122 0 -228 -3 -237 -6 -13 -5 -16 -22 -16 -80 0 -68
2 -74 23 -79 12 -3 126 -4 252 -3 l230 3 3 63 c2 34 5 62 8 62 3 0 14 -5 25
-10 18 -10 19 -26 19 -471 l0 -460 -25 -24 -24 -25 -256 0 -256 0 -24 25 -25
24 0 485 0 485 23 27 c19 21 33 27 73 28 47 2 49 4 52 34 3 28 -1 33 -32 46
l-36 15 0 112 c0 125 10 149 62 149 l28 0 0 73 c0 97 14 141 53 171 50 37 89
42 81 8z m1746 -278 c18 -21 17 -72 -3 -91 -22 -23 -81 -22 -107 2 -24 22 -26
52 -4 83 19 27 94 31 114 6z m-1246 -510 c14 -5 16 -43 16 -319 0 -174 4 -316
9 -319 11 -7 381 -10 387 -3 3 3 6 142 7 309 l2 303 23 3 22 3 0 -415 0 -415
-26 -20 c-25 -20 -40 -21 -219 -21 -179 0 -194 1 -219 21 l-26 20 0 430 c0
236 2 429 4 429 2 0 11 -3 20 -6z m178 -71 c3 -48 3 -48 41 -51 l37 -3 0 50
c0 48 2 51 25 51 24 0 25 -2 25 -65 0 -55 -3 -66 -21 -76 -29 -15 -138 -7
-150 12 -5 8 -9 40 -9 72 0 54 1 57 24 57 23 0 25 -5 28 -47z"/>
<path d="M3173 1874 c-10 -4 -13 -40 -13 -131 l0 -125 89 4 c78 3 93 6 115 27
23 22 26 32 26 92 0 82 -5 96 -40 114 -30 15 -156 29 -177 19z"/>
<path d="M3842 1873 l-43 -4 3 -47 3 -47 79 -3 c58 -2 84 1 102 13 27 17 32
56 10 74 -16 14 -92 20 -154 14z"/>
<path d="M5993 1873 l-53 -4 0 -58 0 -59 54 -6 c58 -8 123 0 144 17 13 11 16
65 4 85 -8 12 -68 34 -87 30 -5 -1 -34 -3 -62 -5z"/>
<path d="M5382 1790 c-16 -36 -28 -68 -25 -72 8 -14 113 -9 113 5 0 6 -13 39
-29 72 l-29 60 -30 -65z"/>
<path d="M2587 1364 c-4 -4 -7 -20 -7 -35 0 -33 24 -40 115 -35 33 2 68 4 78
5 14 1 18 8 15 34 l-3 32 -95 3 c-53 1 -99 0 -103 -4z"/>
<path d="M2432 658 l3 -383 250 0 250 0 3 383 2 382 -255 0 -255 0 2 -382z
m106 113 c3 -138 -4 -165 -33 -141 -12 10 -15 37 -15 140 0 69 3 130 7 134 4
4 14 5 23 4 12 -3 15 -26 18 -137z m-3 -246 c0 -33 -3 -40 -20 -40 -15 0 -21
8 -23 28 -5 39 5 59 25 55 14 -2 18 -13 18 -43z"/>
<path d="M3212 348 l3 -73 190 0 190 0 5 40 c3 22 3 55 1 73 l-3 32 -195 0
-194 0 3 -72z"/>
</g>
</svg>
